<svg version="1" xmlns="http://www.w3.org/2000/svg" width="682.667" height="682.667" viewBox="0 0 512.000000 512.000000"><path d="M145.5 50.8c-7 .6-14.8 2.5-20 4.8-5 2.3-17.5 12.8-17.5 14.8 0 .4-.9 1.9-1.9 3.2-3.4 4.4-7.9 16.6-13.1 36-2.8 10.4-8.5 31.4-12.6 46.6-4.1 15.3-7.7 28.5-7.9 29.5-.2 1-1.5 6.1-3 11.3-1.4 5.2-3.7 13.8-5.1 19-1.4 5.2-4.8 17.8-7.6 28-5.5 20.3-8.8 32.7-9.3 35-.2.8-1.6 5.8-3 11-1.5 5.2-3.5 12.6-4.5 16.5-1 3.8-2.6 9.7-3.5 13-.9 3.3-1.8 6.9-2.1 7.9-.2 1-.8 3.3-1.4 5.1-.6 1.8-1.2 4.1-1.4 5.1-.3 1-2.1 8-4.1 15.4-16.6 61.8-16 59.1-15.9 71.5.2 23.2 14.8 36.9 38.9 36.4 20.9-.5 37.9-13.7 46.3-36.1 1.6-4.4 9-30.3 10.7-37.8.2-.8 1.8-6.7 3.5-13 1.8-6.3 3.3-12.2 3.5-13 .2-.8 2.1-8 4.4-16 3.5-12.9 19.7-72.9 21.6-80.5.5-1.7.9-3.5 1.1-4 .2-.6 2.5-9.3 5.3-19.5 2.7-10.2 5.4-19.6 5.9-21l.9-2.5.8 2.5c.7 2.4 7.9 21.5 13 34.5 1.3 3.3 7.8 20.3 14.4 37.9 6.7 17.5 13.7 34.9 15.7 38.6 8 15.4 20.6 21.9 38.3 19.8 7.8-.9 11.9-2.3 19.6-6.7 10.7-6.1 14.3-9.5 41.5-39.1 5.8-6.2 13.2-14.2 16.4-17.7 3.2-3.5 6.6-7.2 7.5-8.2.9-1 5.7-6.2 10.6-11.6 5-5.4 10.1-11 11.5-12.5 4.6-5.1 21.5-23.4 23-25 9.2-10 12-12.8 12-12.5 0 .2-5 19-11.1 41.7-6.1 22.7-11.2 42-11.4 42.8-1.1 4.6-13.9 52.4-23.6 88.5-6.1 22.6-7.3 35.1-4.5 44.9 4.9 16.8 18.3 25.8 37.5 25.5 14.3-.3 24-4.5 34.2-14.9 10.5-10.7 12.7-16 24.4-60 3.2-11.8 8.2-30.5 11.2-41.5s5.6-20.7 5.8-21.5c.2-.8 2.2-8.5 4.5-16.9 2.3-8.5 5-18.7 6-22.5 3.4-12.8 8.8-32.8 13-48.6 2.4-8.5 5.7-21.1 7.6-28 1.8-6.9 7.1-26.7 11.7-44s8.8-32.9 9.2-34.5c.5-1.7 1-3.5 1.1-4 .2-.6 1-3.7 1.9-7 .9-3.3 1.8-6.7 2-7.5 2-7 2.6-10.8 3-19.2.8-22.1-8.3-34.6-29-39.4-4.4-1-25.1-.3-31.1 1.1-11.4 2.6-23.2 9.9-33.2 20.5-2.4 2.5-10.9 12.4-19 22-8 9.6-14.9 17.7-15.2 18-.3.3-6.1 7.2-13 15.5-6.9 8.2-13.2 15.9-14.1 17-10.8 12.9-20.5 24.5-22.3 26.5-1.1 1.4-11.1 13.3-22.1 26.5-11 13.2-20.4 24.5-21 25.1-.5.6-2.8 3.2-5 5.9s-5.6 6.7-7.5 9c-1.9 2.3-4.7 5.6-6.1 7.4-2.3 2.8-2.7 3-3.4 1.4-.4-1-3.1-8.3-6.1-16.3-3-8-5.9-15.4-6.4-16.5-.9-2-13.8-36.1-19.1-50.5-4.6-12.7-26.4-70-29.8-78.5-6.9-17.2-16.2-27.7-28.6-32-5-1.8-17.3-3.2-23-2.7z"/></svg>