<svg version="1" xmlns="http://www.w3.org/2000/svg" width="152" height="152" viewBox="0 0 114.000000 114.000000"><path d="M28.7 16.1c-2.5 1.5-4.2 5.2-7 15.9-1.4 5.2-5.5 20.5-9.1 33.9-7.3 26.8-7.9 31-5.1 34.1 2.2 2.4 7.6 2.7 11 .4 3-2 4.4-5.7 9.5-24.5 6.4-23.7 7.1-26.2 8-25.2.4.4 2.6 5.7 4.9 11.8C46.6 77.4 47 78 52.5 78c5.1 0 6.6-1.3 22.7-19 4.7-5.2 8.8-9.3 9.1-9 .2.3-2 9.3-4.9 20-6.2 22.9-6.8 27.5-3.5 30.2 1.3 1 3.9 1.8 5.8 1.8 5.8 0 8.4-3.7 12.1-17 9.9-36.2 16.2-60.7 16.2-63.2 0-1.5-1-3.8-2.1-4.9-1.8-1.8-3-2.1-7.5-1.7-6.7.6-6.7.5-26 23.8-8.2 9.9-15.3 17.9-15.7 17.9-.9.1-1 0-9.3-21.9-3.2-8.5-6.9-16.5-8.1-17.8-2.4-2.4-9.3-3-12.6-1.1z"/></svg>